<svg xmlns="http://www.w3.org/2000/svg" viewBox="0 0 28 32" aria-hidden="true">
  <defs>
    <linearGradient id="lm-grad" x1="0" y1="0" x2="1" y2="1">
      <stop offset="0" stop-color="#22d3ee"/>
      <stop offset="1" stop-color="#8b5cf6"/>
    </linearGradient>
  </defs>
  <!-- Stylized NH outline -->
  <path fill="url(#lm-grad)" d="M11.5 1 L13.5 0.5 L15.5 1.5 L17 3 L18.5 5.5 L20 9 L21.5 13 L22.5 17 L23.5 21 L24.5 25 L25 28 L24 30 L21 31.5 L17.5 32 L13.5 31 L10 29 L7 26.5 L5 24 L3.5 21 L3 18 L3.5 14 L4.5 10 L6 6 L8 3 Z"/>
  <!-- Node dots overlay -->
  <circle fill="#0a1224" cx="12" cy="9" r="1.4"/>
  <circle fill="#0a1224" cx="16" cy="15" r="1.4"/>
  <circle fill="#0a1224" cx="13" cy="22" r="1.4"/>
</svg>
